<svg id="Layer_1" xmlns="http://www.w3.org/2000/svg" viewBox="0 0 200 200">
	<style>

		#thth {
		  fill:#222;

		  animation: animationFrames cubic-bezier(0.645, 0.045, 0.355, 1) 8000ms;
		  animation-iteration-count: infinite;
		  animation-duration: infinite;
		  transform-origin: 50% 50%;

		  -webkit-animation: animationFrames cubic-bezier(0.645, 0.045, 0.355, 1) 8000ms;
		  -webkit-animation-iteration-count: 1;
		  -webkit-animation-duration: infinite;
		  -webkit-transform-origin: 50% 50%;

		  -moz-animation: animationFrames linear 1000ms;
		  -moz-animation-iteration-count: infinite;
		  -moz-transform-origin: 50% 50%;

		  -ms-animation: animationFrames linear 1000ms;
		  -ms-animation-iteration-count: infinite;
		  -ms-transform-origin: 50% 50%;}

		@-webkit-keyframes animationFrames {
		  100% {
		  -webkit-transform: rotate(360deg);}
		}

	</style>

	<path id="thth" d="
		M100.1 3.5c-52.9 0-95.9 43-95.9 95.9s43 95.9 95.9 95.9 95.9-43 95.9-95.9-43-95.9-95.9-95.9z
		m0 78.3c9.7 0 17.7 7.9 17.7 17.7s-7.9 17.7-17.7 17.7-17.7-7.9-17.7-17.7 8-17.7 17.7-17.7z
		
		m0 108.5c-50.1 0-90.9-40.8-90.9-90.9C9.2 50.2 48.6 10 97.6 8.6
		v68.2c-11.3 1.3-20.2 10.9-20.2 22.6 0 12.5 10.2 22.7 22.7 22.7
		s22.7-10.2 22.7-22.7
		c0-11.7-8.9-21.3-20.2-22.6
		V8.6c49 1.4 88.4 41.6 88.4 90.8 0 50.1-40.8 90.9-90.9 90.9z"/>
</svg>